<?xml version="1.0" encoding="UTF-8" standalone="no"?>
<!-- Created with Inkscape (http://www.inkscape.org/) -->

<svg
   width="210mm"
   height="297mm"
   viewBox="0 0 210 297"
   version="1.1"
   id="svg1954"
   xmlns="http://www.w3.org/2000/svg"
   xmlns:svg="http://www.w3.org/2000/svg">
  <defs
     id="defs1951" />
  <g
     id="layer1">
    <g
       aria-label="ZYNAYUMI AY-8910 / YM2149 emulator synth"
       id="text124789"
       style="font-size:3.71793px;line-height:1.25;font-family:'Roboto Condensed';-inkscape-font-specification:'Roboto Condensed, ';letter-spacing:0px;word-spacing:0px;display:inline;fill:#fffcf2;stroke-width:0.376995">
      <path
         d="M 0.04720078,0.57366117 V -6.1392784e-6 H 3.7288378 V 0.50830667 L 0.82419322,4.7164105 H 3.8450236 V 5.286447 H 3.0919909e-7 V 4.763611 L 2.8973833,0.57366117 Z"
         style="font-style:normal;font-size:7.43589px;font-family:Roboto;-inkscape-font-specification:Roboto"
         id="path2036" />
      <path
         d="M 4.9959889,-6.1392784e-6 6.3684334,2.6541129 7.7445088,-6.1392784e-6 H 8.5396553 L 6.7169908,3.3112887 V 5.286447 H 6.0162453 V 3.3112887 L 4.1935808,-6.1392784e-6 Z"
         style="font-style:normal;font-size:7.43589px;font-family:Roboto;-inkscape-font-specification:Roboto"
         id="path2038" />
      <path
         d="M 13.285118,-6.1392784e-6 V 5.286447 H 12.580741 L 9.9193608,1.2090522 V 5.286447 H 9.2186153 V -6.1392784e-6 H 9.9193608 L 12.591634,4.0882811 V -6.1392784e-6 Z"
         style="font-style:normal;font-size:7.43589px;font-family:Roboto;-inkscape-font-specification:Roboto"
         id="path2040" />
      <path
         d="M 14.080265,5.286447 16.095362,-6.1392784e-6 h 0.613607 L 18.731327,5.286447 H 18.012428 L 17.507746,3.9031101 H 15.296585 L 14.795534,5.286447 Z M 15.507172,3.3294427 H 17.30079 L 16.403981,0.86412563 Z"
         style="font-style:normal;font-size:7.43589px;font-family:Roboto;-inkscape-font-specification:Roboto"
         id="path2042" />
      <path
         d="M 19.341302,-6.1392784e-6 20.713747,2.6541129 22.089822,-6.1392784e-6 h 0.795147 L 21.062304,3.3112887 V 5.286447 H 20.361559 V 3.3112887 L 18.538894,-6.1392784e-6 Z"
         style="font-style:normal;font-size:7.43589px;font-family:Roboto;-inkscape-font-specification:Roboto"
         id="path2044" />
      <path
         d="m 26.239834,-6.1392784e-6 h 0.697115 V 3.5763375 q 0,0.8931783 -0.573668,1.3397674 -0.573667,0.4429583 -1.343398,0.4429583 -0.809669,0 -1.361552,-0.4429583 Q 23.110079,4.4695158 23.110079,3.5763375 V -6.1392784e-6 h 0.693484 V 3.5763375 q 0,0.6208678 0.334034,0.9185939 0.337665,0.2940953 0.882286,0.2940953 0.551883,0 0.885917,-0.2940953 0.334034,-0.2977261 0.334034,-0.9185939 z"
         style="font-style:normal;font-size:7.43589px;font-family:Roboto;-inkscape-font-specification:Roboto"
         id="path2046" />
      <path
         d="M 30.669418,4.3097603 32.397681,-6.1392784e-6 h 0.90044 V 5.286447 H 32.601006 V 3.2241494 L 32.669996,1.0129887 30.93084,5.286447 h -0.530098 l -1.735525,-4.2807199 0.06898,2.2184223 V 5.286447 H 28.037083 V -6.1392784e-6 h 0.90044 z"
         style="font-style:normal;font-size:7.43589px;font-family:Roboto;-inkscape-font-specification:Roboto"
         id="path2048" />
      <path
         d="M 35.280539,-6.1392784e-6 V 5.286447 H 34.579793 V -6.1392784e-6 Z"
         style="font-style:normal;font-size:7.43589px;font-family:Roboto;-inkscape-font-specification:Roboto"
         id="path2050" />
      <path
         d="m 36.66206,5.286447 1.283485,-2.6432159 h 0.281386 l 0.36671,2.6432159 h -0.31951 L 38.192438,4.5947813 H 37.32831 L 37.006985,5.286447 Z m 0.798774,-0.9784982 h 0.697112 L 38.01816,3.1116032 Z"
         style="font-style:italic;-inkscape-font-specification:'Roboto Condensed,  Italic'"
         id="path2052" />
      <path
         d="m 39.376074,2.6432311 0.290463,1.3234234 0.755205,-1.3234234 h 0.384864 L 39.777276,4.3188412 39.61026,5.286447 h -0.326771 l 0.176093,-1.0075445 -0.43751,-1.6356714 z"
         style="font-style:italic;-inkscape-font-specification:'Roboto Condensed,  Italic'"
         id="path2054" />
      <path
         d="m 41.334886,4.0247471 -0.04902,0.2759402 h -0.729789 l 0.04902,-0.2759402 z"
         style="font-style:italic;-inkscape-font-specification:'Roboto Condensed,  Italic'"
         id="path2056" />
      <path
         d="M 42.894313,4.5548426 Q 42.867082,4.8761677 42.658312,5.1049075 42.451357,5.3318319 42.113693,5.3245704 41.803261,5.3154934 41.652583,5.0976459 41.50372,4.8779831 41.527321,4.5857044 41.54729,4.3569645 41.670737,4.1863173 41.795999,4.0156702 41.999323,3.914008 41.874061,3.8105305 41.826861,3.6580372 q -0.0472,-0.1524932 -0.03449,-0.3104326 0.0236,-0.3031711 0.212402,-0.5264647 0.190616,-0.2232937 0.513757,-0.2160321 0.297724,0.00908 0.432064,0.2232937 0.136154,0.2124013 0.112554,0.486526 -0.01815,0.2087705 -0.130708,0.3648945 -0.110739,0.1543086 -0.288648,0.2541554 0.148862,0.1071083 0.206955,0.2759401 0.05809,0.1688318 0.04357,0.3449251 z M 42.747266,3.3221891 q 0.01271,-0.1343393 -0.03631,-0.2850171 -0.0472,-0.1524933 -0.214216,-0.1561241 -0.190617,-0.00545 -0.285017,0.1524933 -0.0944,0.1579394 -0.108924,0.3176942 -0.01271,0.1379701 0.03449,0.2868325 0.0472,0.1488624 0.219663,0.1524932 0.186986,0.00545 0.281387,-0.1506778 0.0944,-0.1579394 0.108923,-0.3176942 z m -0.16157,1.225392 q 0.01452,-0.1561241 -0.04538,-0.3176943 -0.05991,-0.1633856 -0.250524,-0.1688317 -0.210586,-0.00545 -0.321325,0.1652009 -0.108924,0.1706472 -0.127078,0.3521868 -0.01634,0.1633856 0.04175,0.3158788 0.05809,0.1506778 0.250525,0.1543086 0.214216,0.00545 0.32314,-0.1524932 0.110739,-0.1579394 0.128893,-0.3485559 z"
         style="font-style:italic;-inkscape-font-specification:'Roboto Condensed,  Italic'"
         id="path2058" />
      <path
         d="m 43.497025,5.2937086 0.0236,-0.2868325 h 0.01997 q 0.27594,0.00363 0.446587,-0.1107391 0.172463,-0.1161853 0.270494,-0.3086172 0.09985,-0.192432 0.165201,-0.4338796 -0.225109,0.25234 -0.46111,0.2487092 -0.225109,-0.00363 -0.339479,-0.147047 -0.11437,-0.1434163 -0.148863,-0.3431098 -0.03449,-0.2015089 -0.01815,-0.3794176 0.02179,-0.2178475 0.11074,-0.4338796 0.09077,-0.2160321 0.25597,-0.3576329 0.167017,-0.1416009 0.419357,-0.1343393 0.272309,0.00726 0.397571,0.1869858 0.127078,0.1797241 0.152494,0.4266179 0.02723,0.2468938 0.0018,0.4556643 l -0.01452,0.1071083 q -0.05083,0.3776023 -0.177909,0.7279736 -0.127078,0.348556 -0.384864,0.5664035 -0.255971,0.216032 -0.718896,0.216032 z m 0.268678,-1.53764 q 0.0091,0.1434163 0.06717,0.2541554 0.05991,0.1107391 0.199693,0.1143699 0.154309,0.00545 0.263233,-0.1143699 0.110739,-0.1216315 0.174278,-0.2414476 l 0.01634,-0.1379701 q 0.0091,-0.098031 0.0073,-0.2741247 -0.0018,-0.174278 -0.05991,-0.3195096 -0.05628,-0.1470471 -0.210586,-0.1543087 -0.16157,-0.00726 -0.261417,0.1089238 -0.09985,0.1161853 -0.154309,0.303171 -0.05265,0.1851704 -0.04538,0.3884947 z"
         style="font-style:italic;-inkscape-font-specification:'Roboto Condensed,  Italic'"
         id="path2060" />
      <path
         d="m 46.347195,2.628708 -0.452033,2.657739 h -0.314063 l 0.388494,-2.2274903 -0.584557,0.2450784 0.05809,-0.321325 0.849606,-0.3540021 z"
         style="font-style:italic;-inkscape-font-specification:'Roboto Condensed,  Italic'"
         id="path2062" />
      <path
         d="m 48.376807,3.7542532 -0.05809,0.3884947 Q 48.255177,4.5729966 48.144437,4.8235212 48.035513,5.0740458 47.870312,5.2029389 47.705111,5.3300165 47.454587,5.322755 47.231293,5.317305 47.113292,5.1974927 46.995291,5.0776766 46.953537,4.896137 q -0.04175,-0.1815395 -0.03631,-0.3794177 0.0054,-0.1960627 0.02542,-0.3594483 l 0.05991,-0.4030178 q 0.03631,-0.2468938 0.118001,-0.5173877 0.08169,-0.270494 0.255971,-0.4538489 0.174277,-0.1851704 0.486526,-0.1760934 0.223293,0.00545 0.341294,0.1216315 0.118001,0.1161853 0.159755,0.2940941 0.04357,0.1760934 0.03812,0.3703407 -0.0054,0.1960627 -0.02542,0.3612637 z M 48.102683,3.2114499 Q 48.09179,3.0752953 48.033698,2.9808947 47.975605,2.8846787 47.841266,2.8792326 47.643388,2.8683402 47.536279,3.0153872 47.430986,3.1624343 47.383786,3.3766509 l -0.04357,0.2160321 -0.09259,0.6208653 -0.0236,0.2142167 q -0.01452,0.1361546 -0.0036,0.2759401 0.0091,0.1397854 0.06535,0.2396322 0.05809,0.098031 0.190616,0.1052929 0.199694,0.010892 0.304987,-0.1397854 0.105293,-0.1506779 0.150678,-0.3540022 0.04538,-0.2033243 0.06354,-0.3340327 0.01997,-0.1325239 0.06536,-0.4465873 0.0472,-0.3158789 0.04538,-0.4756337 z"
         style="font-style:italic;-inkscape-font-specification:'Roboto Condensed,  Italic'"
         id="path2064" />
      <path
         d="m 50.851191,2.6432311 -1.396039,2.8701404 h -0.277756 l 1.39967,-2.8701404 z"
         style="font-style:italic;-inkscape-font-specification:'Roboto Condensed,  Italic'"
         id="path2066" />
      <path
         d="m 52.223631,2.6432311 0.290463,1.3234234 0.755205,-1.3234234 h 0.384864 l -1.02933,1.6756101 -0.167016,0.9676058 h -0.326771 l 0.176093,-1.0075445 -0.43751,-1.6356714 z"
         style="font-style:italic;-inkscape-font-specification:'Roboto Condensed,  Italic'"
         id="path2068" />
      <path
         d="M 54.685305,4.7944749 55.727342,2.6432311 H 56.15033 L 55.691035,5.286447 H 55.366079 L 55.547618,4.2389638 55.747312,3.2640964 54.736136,5.286447 H 54.487427 L 54.173364,3.2096345 54.020871,4.2716409 53.844777,5.286447 h -0.324956 l 0.45748,-2.6432159 h 0.412095 z"
         style="font-style:italic;-inkscape-font-specification:'Roboto Condensed,  Italic'"
         id="path2070" />
      <path
         d="M 57.673448,5.0105069 57.629878,5.286447 H 56.1939 L 56.23384,5.0304763 57.034429,4.1282247 Q 57.235938,3.8994849 57.364831,3.7233915 57.493724,3.5454827 57.515509,3.3385276 57.533659,3.193296 57.479199,3.0408028 57.424739,2.8864941 57.246829,2.8810479 57.010827,2.8701559 56.901903,3.0444335 56.79298,3.2187115 56.765749,3.418405 l -0.310433,0.00182 q 0.03268,-0.3340328 0.241448,-0.5772958 0.20877,-0.2450784 0.568218,-0.2360014 0.297725,0.00545 0.448403,0.2069551 0.150678,0.2015089 0.125262,0.486526 -0.0236,0.2723094 -0.186985,0.5101262 -0.16157,0.2360014 -0.337664,0.4320641 l -0.68985,0.7679123 z"
         style="font-style:italic;-inkscape-font-specification:'Roboto Condensed,  Italic'"
         id="path2072" />
      <path
         d="m 59.338166,2.628708 -0.452033,2.657739 h -0.314064 l 0.388495,-2.2274903 -0.584558,0.2450784 0.05809,-0.321325 0.849605,-0.3540021 z"
         style="font-style:italic;-inkscape-font-specification:'Roboto Condensed,  Italic'"
         id="path2074" />
      <path
         d="m 59.781122,4.4568113 1.258069,-1.8135802 h 0.341295 l -0.304987,1.7536721 h 0.286833 l -0.04902,0.2759402 H 61.028299 L 60.921191,5.286447 h -0.314064 l 0.107109,-0.6136036 h -0.971237 z m 0.368526,-0.059908 h 0.611788 l 0.230555,-1.2653307 -0.02541,0.041754 z"
         style="font-style:italic;-inkscape-font-specification:'Roboto Condensed,  Italic'"
         id="path2076" />
      <path
         d="m 61.830704,5.2937086 0.0236,-0.2868325 h 0.01997 q 0.27594,0.00363 0.446588,-0.1107391 0.172462,-0.1161853 0.270494,-0.3086172 0.09985,-0.192432 0.165201,-0.4338796 -0.22511,0.25234 -0.461111,0.2487092 -0.225109,-0.00363 -0.339479,-0.147047 -0.11437,-0.1434163 -0.148862,-0.3431098 -0.03449,-0.2015089 -0.01815,-0.3794176 0.02178,-0.2178475 0.110739,-0.4338796 0.09077,-0.2160321 0.255971,-0.3576329 0.167016,-0.1416009 0.419356,-0.1343393 0.272309,0.00726 0.397572,0.1869858 0.127077,0.1797241 0.152493,0.4266179 0.02723,0.2468938 0.0018,0.4556643 l -0.01452,0.1071083 q -0.05083,0.3776023 -0.177909,0.7279736 -0.127077,0.348556 -0.384864,0.5664035 -0.25597,0.216032 -0.718896,0.216032 z m 0.268678,-1.53764 q 0.0091,0.1434163 0.06717,0.2541554 0.05991,0.1107391 0.199693,0.1143699 0.154309,0.00545 0.263233,-0.1143699 0.110739,-0.1216315 0.174278,-0.2414476 l 0.01634,-0.1379701 q 0.0091,-0.098031 0.0073,-0.2741247 -0.0018,-0.174278 -0.05991,-0.3195096 -0.05628,-0.1470471 -0.210586,-0.1543087 -0.16157,-0.00726 -0.261417,0.1089238 -0.09985,0.1161853 -0.154309,0.303171 -0.05265,0.1851704 -0.04538,0.3884947 z"
         style="font-style:italic;-inkscape-font-specification:'Roboto Condensed,  Italic'"
         id="path2078" />
      <path
         d="m 65.525029,5.0322917 q -0.116185,0.1506778 -0.286832,0.2232936 -0.170647,0.0708 -0.357633,0.06717 Q 64.624593,5.3191242 64.481177,5.1938619 64.339576,5.0685996 64.29056,4.8707215 64.241545,4.671028 64.265145,4.4459189 l 0.02178,-0.1779088 q 0.07261,-0.5881881 0.401202,-0.8496051 0.177909,-0.1416008 0.446587,-0.1325238 0.263233,0.00726 0.384864,0.1488624 0.123447,0.1397854 0.150678,0.3503713 0.02723,0.2105859 0,0.426618 l -0.02723,0.1869857 -1.051114,-0.00182 -0.0073,0.052647 q -0.02178,0.1325239 -0.0073,0.2686785 0.01271,0.1379701 0.08714,0.2323707 0.07625,0.0944 0.245078,0.098031 0.250525,0.00726 0.462926,-0.2214782 z M 65.112935,3.5600059 q -0.190617,-0.010892 -0.308618,0.1234469 -0.118,0.1343393 -0.188801,0.4411411 l 0.751574,0.00182 0.0073,-0.049016 Q 65.39617,3.9121969 65.35805,3.7415497 65.31993,3.5709026 65.112972,3.5600102 Z"
         style="font-style:italic;-inkscape-font-specification:'Roboto Condensed,  Italic'"
         id="path2080" />
      <path
         d="m 66.801259,3.5672675 q -0.219663,-0.00363 -0.368525,0.2396322 L 66.176763,5.286447 h -0.312248 l 0.341294,-1.9642579 0.290464,-0.00182 -0.03449,0.1797241 q 0.210586,-0.2196628 0.48108,-0.2124012 0.143416,0.00182 0.250524,0.072616 0.108924,0.0708 0.152494,0.2087705 0.234186,-0.2886479 0.535541,-0.2850171 0.201509,0.00363 0.303171,0.1107391 0.101663,0.1071083 0.130709,0.2704939 0.02905,0.1615702 0.01089,0.330402 L 68.110159,5.286447 h -0.312248 l 0.214217,-1.2961924 q 0.01634,-0.1524932 -0.02179,-0.2868325 -0.03812,-0.1361546 -0.225109,-0.13797 -0.159755,-0.00363 -0.266863,0.1252623 -0.105293,0.128893 -0.128893,0.2723093 l -0.0018,0.012708 -0.223293,1.3107155 H 66.830305 L 67.046337,3.99207 q 0.01634,-0.147047 -0.02541,-0.2832017 -0.03994,-0.1361546 -0.219663,-0.1416008 z"
         style="font-style:italic;-inkscape-font-specification:'Roboto Condensed,  Italic'"
         id="path2082" />
      <path
         d="m 69.560656,5.286447 0.03631,-0.1724625 q -0.192432,0.216032 -0.472003,0.2087705 -0.201508,-0.00363 -0.297724,-0.1180008 -0.0944,-0.1161853 -0.118001,-0.2850171 -0.0236,-0.1688317 -0.0073,-0.3304019 L 68.91434,3.3221891 h 0.312248 l -0.212402,1.2725922 -0.0054,0.1779088 q 0.0018,0.1034776 0.04175,0.1815396 0.03994,0.078062 0.148863,0.083508 0.265047,0.012708 0.432064,-0.261417 l 0.250524,-1.4541318 h 0.314064 L 69.856566,5.286447 Z"
         style="font-style:italic;-inkscape-font-specification:'Roboto Condensed,  Italic'"
         id="path2084" />
      <path
         d="M 71.141869,2.4979995 70.657158,5.286447 H 70.34491 l 0.484711,-2.7884475 z"
         style="font-style:italic;-inkscape-font-specification:'Roboto Condensed,  Italic'"
         id="path2086" />
      <path
         d="m 72.149413,5.286447 q -0.01089,-0.054462 -0.0091,-0.1071083 l 0.0073,-0.1052929 Q 71.937011,5.3245704 71.697379,5.3245704 71.44867,5.322755 71.321592,5.1630002 71.19633,5.0032453 71.210853,4.7654285 q 0.02178,-0.3431097 0.274125,-0.5064953 0.254155,-0.165201 0.570034,-0.165201 h 0.232371 l 0.03086,-0.2105859 q 0.01452,-0.1416009 -0.03812,-0.2323706 -0.05265,-0.09077 -0.206955,-0.09077 -0.143416,-0.00182 -0.237817,0.085324 -0.0944,0.085324 -0.121631,0.2196628 l -0.310433,0.00182 q 0.02542,-0.2632323 0.236002,-0.4248025 0.210586,-0.1633856 0.466556,-0.1579394 0.277756,0.00363 0.41391,0.1688317 0.137971,0.1633856 0.11074,0.435695 L 72.47074,4.8580185 Q 72.4544,4.961496 72.45803,5.057712 l 0.0091,0.1978781 -0.0036,0.030862 z M 71.762734,5.0341071 q 0.234186,0.00363 0.404833,-0.2305553 L 72.249257,4.331549 72.10584,4.329729 q -0.194247,0 -0.37034,0.088954 -0.174278,0.088954 -0.199694,0.3068018 -0.01634,0.1325239 0.03086,0.2214783 0.04901,0.087139 0.196063,0.087139 z"
         style="font-style:italic;-inkscape-font-specification:'Roboto Condensed,  Italic'"
         id="path2088" />
      <path
         d="M 73.58539,5.286447 Q 73.49462,5.322755 73.380251,5.319124 73.167849,5.315494 73.109757,5.1430306 73.053477,4.970568 73.069817,4.7981054 L 73.26951,3.579975 h -0.290463 l 0.04538,-0.2577861 h 0.288648 L 73.396589,2.84474 h 0.314064 l -0.08351,0.4774491 h 0.288648 l -0.04538,0.2577861 H 73.583575 L 73.37662,4.8035518 q -0.0073,0.068985 0.0036,0.1470471 0.01089,0.078062 0.103477,0.078062 0.04175,0.00182 0.128893,-0.018154 z"
         style="font-style:italic;-inkscape-font-specification:'Roboto Condensed,  Italic'"
         id="path2090" />
      <path
         d="m 74.001114,4.3987186 0.01815,-0.1434162 q 0.07443,-0.5809266 0.430249,-0.844159 0.18154,-0.1343392 0.444772,-0.1252622 0.25234,0.00545 0.392125,0.147047 0.139786,0.1416008 0.186986,0.3521867 0.04902,0.2087705 0.02723,0.426618 l -0.01815,0.1452316 Q 75.424385,4.8108134 75.188383,5.0740458 74.954197,5.3354627 74.607457,5.322755 74.355117,5.3173088 74.215331,5.1775233 74.075546,5.0359225 74.02653,4.8253366 73.97933,4.6147507 74.001114,4.3987186 Z m 0.312248,0.2741248 q 0.01089,0.1488624 0.07988,0.2596015 0.0708,0.1107391 0.23237,0.1180007 0.208771,0.010892 0.337664,-0.1361546 0.130709,-0.1470471 0.186986,-0.435695 0.05628,-0.2904633 0.03812,-0.5391724 -0.01089,-0.1488625 -0.08169,-0.2596016 -0.06898,-0.1125545 -0.23237,-0.1198161 -0.172463,-0.00908 -0.285017,0.096216 -0.112555,0.105293 -0.174278,0.2650478 -0.05991,0.1597548 -0.08351,0.3412944 -0.02178,0.1815395 -0.0236,0.2577861 0,0.076247 0.0054,0.1524933 z"
         style="font-style:italic;-inkscape-font-specification:'Roboto Condensed,  Italic'"
         id="path2092" />
      <path
         d="m 76.669748,3.6035754 q -0.141601,0 -0.236001,0.079877 -0.09258,0.078062 -0.15794,0.1942473 L 76.032544,5.286447 h -0.314063 l 0.341294,-1.9642579 0.301356,-0.00182 -0.04175,0.1996935 q 0.06898,-0.098031 0.163386,-0.1688318 0.0944,-0.072616 0.225109,-0.068985 0.05265,0 0.134339,0.027231 l -0.03449,0.312248 q -0.08169,-0.018154 -0.13797,-0.018154 z"
         style="font-style:italic;-inkscape-font-specification:'Roboto Condensed,  Italic'"
         id="path2094" />
      <path
         d="M 78.679385,4.7690593 Q 78.693908,4.6655818 78.637631,4.5984121 78.583169,4.5294271 78.388922,4.4313957 78.19649,4.3333644 78.047627,4.2135483 77.898765,4.0919168 77.913288,3.8577308 q 0.01452,-0.2632324 0.212401,-0.4193564 0.197879,-0.1579394 0.452034,-0.1524932 0.263232,0.00545 0.412095,0.1724625 0.148862,0.165201 0.13797,0.4248026 l -0.310433,-0.00182 q 0.0054,-0.1252623 -0.05628,-0.2196629 -0.06172,-0.096216 -0.201509,-0.098031 -0.130709,0 -0.225109,0.076247 -0.0944,0.076247 -0.112555,0.2069551 -0.01271,0.092585 0.03086,0.1506778 0.04357,0.058093 0.232371,0.1524932 0.190616,0.092585 0.355817,0.2178475 0.165201,0.1252623 0.150678,0.3757869 Q 78.975288,5.0232108 78.77015,5.175704 78.566826,5.3281972 78.299962,5.3227511 78.025838,5.3173011 77.858821,5.1448423 77.69362,4.9705643 77.704513,4.6964396 l 0.315878,0.00182 q -0.0054,0.1488624 0.06354,0.2468938 0.06898,0.098031 0.230556,0.099847 0.132523,0.00182 0.239632,-0.06717 0.107108,-0.068985 0.125262,-0.2087705 z"
         style="font-style:italic;-inkscape-font-specification:'Roboto Condensed,  Italic'"
         id="path2096" />
      <path
         d="m 79.282101,6.0852211 q -0.06354,0 -0.176094,-0.032677 l 0.03086,-0.2723094 0.06535,0.010892 q 0.163386,0.00726 0.254155,-0.087139 0.09259,-0.0944 0.152494,-0.234186 l 0.09803,-0.2214783 -0.223294,-1.9261346 h 0.330402 l 0.105293,1.4232701 0.591819,-1.4232701 h 0.344925 L 79.83942,5.5878024 Q 79.75047,5.7893113 79.619757,5.9399891 79.489049,6.090667 79.282094,6.0852208 Z"
         style="font-style:italic;-inkscape-font-specification:'Roboto Condensed,  Italic'"
         id="path2098" />
      <path
         d="m 81.772826,3.5672675 q -0.136154,-0.00363 -0.236001,0.088954 -0.09803,0.092585 -0.167017,0.1978782 l -0.246893,1.432347 h -0.314064 l 0.341295,-1.9642579 0.294094,-0.00182 -0.04175,0.2105859 q 0.221478,-0.25234 0.486526,-0.2450784 0.197878,0.00363 0.292278,0.1161853 0.0944,0.1107391 0.116186,0.2741247 0.0236,0.1633856 0.0073,0.3231404 L 82.09052,5.286447 h -0.314063 l 0.216032,-1.2925616 q 0.01452,-0.13797 -0.01271,-0.2795709 -0.02723,-0.1434162 -0.206955,-0.147047 z"
         style="font-style:italic;-inkscape-font-specification:'Roboto Condensed,  Italic'"
         id="path2100" />
      <path
         d="M 83.263262,5.286447 Q 83.172492,5.322755 83.058122,5.319124 82.845721,5.315494 82.787628,5.1430306 82.731348,4.970568 82.747688,4.7981054 L 82.947383,3.5799752 H 82.65692 L 82.7023,3.3221891 h 0.288648 L 83.074461,2.84474 h 0.314063 l -0.08351,0.4774491 h 0.288648 l -0.04539,0.2577861 H 83.26144 l -0.206955,1.2235766 q -0.0073,0.068985 0.0036,0.1470471 0.01089,0.078062 0.103478,0.078062 0.04175,0.00182 0.128893,-0.018154 z"
         style="font-style:italic;-inkscape-font-specification:'Roboto Condensed,  Italic'"
         id="path2102" />
      <path
         d="m 84.586684,3.5654521 q -0.13797,-0.00182 -0.236001,0.09077 Q 84.252651,3.748807 84.183666,3.8541 L 83.936773,5.286447 H 83.622709 L 84.10742,2.4979995 h 0.314063 l -0.192432,1.0238831 q 0.212402,-0.2378168 0.475634,-0.234186 0.197878,0.00182 0.290463,0.1143699 0.0944,0.1107391 0.116186,0.2741247 0.0236,0.1633856 0.0073,0.3231404 L 84.904378,5.286447 h -0.314063 l 0.216032,-1.2925616 q 0.01452,-0.13797 -0.01271,-0.2813863 -0.02723,-0.1434162 -0.206955,-0.147047 z"
         style="font-style:italic;-inkscape-font-specification:'Roboto Condensed,  Italic'"
         id="path2104" />
    </g>
  </g>
</svg>
