<svg width="210mm" height="297mm" viewBox="0 0 210 297" xmlns="http://www.w3.org/2000/svg">
    <g aria-label="ZYNAYUMI AY-8910 / YM2149 emulator synth" style="line-height:1.25;-inkscape-font-specification:'Roboto Condensed, '" font-size="3.718" font-family="Roboto Condensed" letter-spacing="0" word-spacing="0" fill="#fffcf2" stroke-width=".377">
        <path d="M.047.574V0H3.73v.508L.824 4.716h3.021v.57H0v-.522L2.897.574zM4.996 0l1.372 2.654L7.745 0h.795L6.717 3.311v1.975h-.7V3.311L4.193 0zM13.285 0v5.286h-.704L9.919 1.21v4.077h-.7V0h.7l2.673 4.088V0zM14.08 5.286L16.095 0h.614l2.022 5.286h-.719l-.504-1.383h-2.211l-.501 1.383zm1.427-1.957h1.794L16.404.864zM19.341 0l1.373 2.654L22.09 0h.795l-1.823 3.311v1.975h-.7V3.311L18.539 0zM26.24 0h.697v3.576q0 .894-.574 1.34-.573.443-1.343.443-.81 0-1.362-.443-.548-.446-.548-1.34V0h.694v3.576q0 .621.334.919.337.294.882.294.552 0 .886-.294.334-.298.334-.919zM30.67 4.31L32.397 0h.9v5.286h-.697V3.224l.069-2.211-1.74 4.273h-.53l-1.735-4.28.07 2.218v2.062h-.698V0h.9zM35.28 0v5.286h-.7V0z" style="-inkscape-font-specification:Roboto" font-size="7.436" font-family="Roboto"/>
        <path d="M36.662 5.286l1.284-2.643h.28l.368 2.643h-.32l-.082-.691h-.864l-.321.691zm.799-.978h.697l-.14-1.196zM39.376 2.643l.29 1.324.756-1.324h.385l-1.03 1.676-.167.967h-.327l.177-1.007-.438-1.636zM41.335 4.025l-.05.276h-.729l.05-.276zM42.894 4.555q-.027.321-.236.55-.207.227-.544.22-.31-.01-.461-.227-.15-.22-.126-.512.02-.229.144-.4.125-.17.328-.272-.125-.103-.172-.256-.047-.152-.035-.31.024-.304.213-.527.19-.223.514-.216.297.01.432.223.136.213.112.487-.018.209-.13.365-.111.154-.29.254.15.107.208.276.058.169.043.345zm-.147-1.233q.013-.134-.036-.285-.047-.152-.214-.156-.19-.005-.285.153-.095.157-.11.317-.012.138.035.287.047.149.22.153.187.005.281-.151.095-.158.11-.318zm-.161 1.226q.014-.157-.046-.318-.06-.163-.25-.169-.21-.005-.322.165-.108.17-.127.352-.016.164.042.316.058.151.25.155.215.005.324-.153.11-.158.129-.348zM43.497 5.294l.024-.287h.02q.276.004.446-.11.173-.117.27-.31.1-.192.166-.433-.225.252-.461.248-.225-.003-.34-.147-.114-.143-.149-.343-.034-.201-.018-.38.022-.217.111-.433.09-.216.256-.358.167-.141.42-.134.272.007.397.187.127.18.152.427.028.246.002.455l-.014.107q-.051.378-.178.728-.127.349-.385.567-.256.216-.719.216zm.269-1.538q.009.143.067.254.06.111.2.115.154.005.263-.115.11-.121.174-.241l.016-.138q.01-.098.008-.274-.002-.175-.06-.32-.056-.147-.21-.154-.162-.007-.262.109t-.155.303q-.052.185-.045.388zM46.347 2.629l-.452 2.657h-.314l.389-2.227-.585.245.058-.321.85-.354zM48.377 3.754l-.058.389q-.064.43-.175.68-.108.251-.274.38-.165.127-.415.12-.224-.006-.342-.126-.118-.12-.16-.3-.041-.182-.036-.38.006-.196.026-.36l.06-.403q.036-.247.118-.517.081-.27.256-.454.174-.185.486-.176.223.005.341.122.118.116.16.294.044.176.038.37-.005.196-.025.361zm-.274-.543q-.011-.136-.07-.23-.057-.096-.192-.102-.198-.01-.305.136-.105.147-.152.362l-.044.216-.092.62-.024.215q-.014.136-.004.276t.066.24q.058.097.19.105.2.01.305-.14.106-.15.151-.354.045-.203.064-.334l.065-.447q.047-.316.045-.475zM50.851 2.643l-1.396 2.87h-.278l1.4-2.87zM52.224 2.643l.29 1.324.755-1.324h.385l-1.03 1.676-.166.967h-.327l.176-1.007-.437-1.636zM54.685 4.794l1.042-2.15h.423l-.459 2.642h-.325l.182-1.047.2-.975-1.012 2.022h-.249l-.314-2.076-.152 1.062-.176 1.014h-.325l.457-2.643h.412zM57.673 5.01l-.043.276h-1.436l.04-.256.8-.902q.202-.229.33-.405.13-.178.152-.384.018-.146-.037-.298-.054-.155-.232-.16-.236-.01-.345.163-.109.175-.136.374l-.31.002q.032-.334.24-.577.21-.245.569-.236.298.005.448.207.151.201.126.486-.024.273-.187.51-.162.237-.338.433l-.69.768zM59.338 2.629l-.452 2.657h-.314l.389-2.227-.585.245.058-.321.85-.354zM59.781 4.457l1.258-1.814h.341l-.305 1.754h.287l-.049.276h-.285l-.107.613h-.314l.107-.613h-.971zm.369-.06h.611l.231-1.265-.025.041zM61.83 5.294l.024-.287h.02q.276.004.447-.11.172-.117.27-.31.1-.192.166-.433-.226.252-.462.248-.225-.003-.339-.147-.114-.143-.149-.343-.034-.201-.018-.38.022-.217.11-.433.091-.216.257-.358.167-.141.419-.134.272.007.398.187.127.18.152.427.027.246.002.455l-.015.107q-.05.378-.178.728-.127.349-.384.567-.256.216-.72.216zm.27-1.538q.008.143.067.254.06.111.2.115.154.005.262-.115.111-.121.175-.241l.016-.138q.01-.098.007-.274-.001-.175-.06-.32-.056-.147-.21-.154-.162-.007-.262.109t-.154.303q-.052.185-.045.388zM65.525 5.032q-.116.151-.287.224-.17.07-.357.067-.256-.004-.4-.13-.141-.124-.19-.322-.05-.2-.026-.425l.022-.178q.073-.588.401-.85.178-.141.447-.132.263.007.385.149.123.14.15.35.027.21 0 .427l-.027.187-1.051-.002-.007.053q-.022.132-.008.268.013.138.087.233.077.094.246.098.25.007.462-.222zm-.412-1.472q-.19-.01-.309.123-.118.135-.188.442l.751.001.007-.049q.022-.165-.016-.335-.038-.171-.245-.182zM66.801 3.567q-.22-.003-.368.24l-.256 1.48h-.312l.34-1.965.291-.002-.034.18q.21-.22.48-.212.144.002.251.072.11.071.153.21.234-.29.535-.286.202.004.304.11.101.108.13.271.03.162.011.33l-.216 1.291h-.312l.214-1.296q.016-.152-.022-.287-.038-.136-.225-.138-.16-.003-.267.126-.105.129-.129.272l-.001.013-.224 1.31h-.314l.216-1.294q.017-.147-.025-.283-.04-.136-.22-.142zM69.56 5.286l.037-.172q-.192.216-.472.209-.202-.004-.298-.118-.094-.116-.118-.285-.023-.17-.007-.33l.212-1.268h.313l-.213 1.273-.005.178q.002.103.042.181t.148.084q.265.012.432-.262l.251-1.454h.314l-.34 1.964zM71.142 2.498l-.485 2.788h-.312l.485-2.788zM72.15 5.286q-.011-.054-.01-.107l.008-.105q-.211.25-.45.25-.25-.001-.376-.161t-.111-.398q.022-.343.274-.506.254-.165.57-.165h.232l.031-.21q.015-.142-.038-.233-.053-.091-.207-.091-.143-.002-.238.085-.094.086-.121.22l-.31.002q.025-.263.235-.425.21-.163.467-.158.278.004.414.169.138.163.11.436l-.16.969q-.016.103-.012.2l.01.198-.004.03zm-.387-.252q.234.004.405-.23l.081-.472-.143-.002q-.194 0-.37.089-.175.089-.2.306-.017.133.03.222.05.087.197.087zM73.585 5.286q-.09.037-.205.033-.212-.004-.27-.176-.057-.172-.04-.345l.2-1.218h-.291l.045-.258h.29l.083-.477h.314l-.084.477h.289l-.046.258h-.286l-.207 1.224q-.008.069.003.147.011.078.104.078.041.001.129-.018zM74.001 4.399l.018-.144q.075-.58.43-.844.182-.134.445-.125.253.005.392.147.14.142.187.352.05.209.028.427l-.019.145q-.058.454-.294.717-.234.261-.58.249-.253-.006-.393-.145-.14-.142-.188-.353-.048-.21-.026-.426zm.312.274q.011.149.08.26.071.11.233.117.208.011.337-.136.131-.147.187-.435.057-.29.038-.54-.01-.148-.081-.26-.07-.112-.233-.119-.172-.01-.285.096-.112.106-.174.265-.06.16-.083.342-.022.181-.024.257 0 .077.005.153zM76.67 3.604q-.142 0-.236.08-.093.078-.158.194l-.243 1.408h-.315l.342-1.964.301-.002-.042.2q.07-.098.164-.169.094-.072.225-.069.053 0 .134.027l-.034.313q-.082-.018-.138-.018zM78.68 4.77q.014-.104-.042-.172-.055-.069-.25-.167-.192-.098-.34-.217-.15-.122-.135-.356.015-.264.213-.42.198-.158.452-.152.263.005.412.172.149.166.138.425l-.31-.002q.005-.125-.057-.22-.062-.096-.201-.097-.131 0-.226.076-.094.076-.112.207-.013.092.03.15.044.059.233.153.19.093.356.218.165.125.15.376-.016.28-.22.432-.204.152-.471.147-.274-.006-.441-.178-.165-.174-.154-.449l.315.002q-.005.15.064.247.069.098.23.1.133.002.24-.067.107-.07.125-.209zM79.282 6.085q-.063 0-.176-.032l.03-.273.066.011q.164.007.254-.087.093-.094.153-.234l.098-.222-.223-1.926h.33l.105 1.423.592-1.423h.345l-1.017 2.266q-.089.201-.22.352-.13.15-.337.145zM81.773 3.567q-.136-.003-.236.09-.098.092-.167.197l-.247 1.432h-.314l.341-1.964.294-.002-.042.211q.222-.252.487-.245.198.004.292.116.095.11.116.274.024.164.008.323l-.214 1.287h-.315l.216-1.292q.015-.138-.012-.28-.027-.143-.207-.147zM83.263 5.286q-.09.037-.205.033-.212-.004-.27-.176-.057-.172-.04-.345l.2-1.218h-.291l.045-.258h.289l.083-.477h.315l-.084.477h.289l-.046.258h-.287l-.207 1.224q-.007.069.004.147.011.078.104.078.041.001.128-.018zM84.587 3.565q-.138-.001-.236.091-.098.093-.167.198l-.247 1.432h-.314l.484-2.788h.314l-.192 1.024q.212-.238.476-.234.198.002.29.114.095.11.116.274.024.164.008.323l-.215 1.287h-.314l.216-1.292q.015-.138-.012-.282-.028-.143-.207-.147z" style="-inkscape-font-specification:'Roboto Condensed, Italic'" font-style="italic"/>
    </g>
</svg>
